<svg aria-hidden="true" style="position:absolute;width:0;height:0;overflow:hidden" xmlns="http://www.w3.org/2000/svg"><defs><symbol id="icon-Search_button" viewBox="0 0 29 32"><path fill="none" stroke="#fff" style="stroke:var(--color1, #fff)" stroke-width="2.162" d="M22.307 11.066c1.379 5.105-1.642 10.36-6.747 11.739S5.2 21.163 3.821 16.059 5.463 5.699 10.567 4.32c5.105-1.379 10.36 1.642 11.739 6.747z"/><path fill="none" stroke="#fff" style="stroke:var(--color1, #fff)" stroke-linecap="round" stroke-width="2.162" d="M18.05 12.952a5.682 5.682 0 0 0-6.968-4.004M23.755 23.183l3.315 3.357"/></symbol><symbol id="icon-star" viewBox="0 0 32 32"><path d="M30.481 12.245a1.603 1.603 0 0 0-1.361-1.096l-.007-.001-8.702-.798-3.424-8.026a1.6 1.6 0 0 0-2.94-.01l-.004.01-3.43 8.026-8.691.785a1.6 1.6 0 0 0-.911 2.812l.002.002 6.569 5.758-1.937 8.527a1.6 1.6 0 0 0 2.388 1.724l-.007.004 7.499-4.478 7.488 4.48a1.6 1.6 0 0 0 2.381-1.739l.002.011-1.937-8.527 6.569-5.76a1.6 1.6 0 0 0 .464-1.709l.003.011-.013-.002z"/></symbol><symbol id="icon-cheked" viewBox="0 0 32 32"><path fill="#40a3f8" style="fill:var(--color1, #40a3f8)" d="M16 .444C7.41.444.444 7.409.444 16S7.409 31.556 16 31.556c8.59 0 15.556-6.965 15.556-15.556S24.591.444 16 .444zm6.719 10.476-7.313 10.139a1.098 1.098 0 0 1-.898.461 1.113 1.113 0 0 1-.898-.461l-4.33-6a.279.279 0 0 1 .226-.441h1.628c.354 0 .691.17.899.462l2.472 3.431 5.458-7.569c.208-.288.542-.462.899-.462h1.628c.226 0 .358.257.226.441z"/></symbol><symbol id="icon-heart" viewBox="0 0 34 32"><path fill="#fff" style="fill:var(--color2, #fff)" d="M20.948 3.612h8.226l2.084 11.681-10.309-1.902V3.612z"/><path fill="#fff" style="fill:var(--color2, #fff)" d="M23.545 0c1.073 0 2.144.15 3.162.488 6.275 2.021 8.536 8.842 6.647 14.804a21.408 21.408 0 0 1-5.115 8.099 65.299 65.299 0 0 1-10.763 8.354l-.425.254-.442-.271a64.668 64.668 0 0 1-10.827-8.354 21.758 21.758 0 0 1-5.119-8.082C-1.258 9.33 1.003 2.509 7.346.453A7.794 7.794 0 0 1 8.857.101h.204A9.958 9.958 0 0 1 10.489 0h.187a10.68 10.68 0 0 1 3.113.556h.1a.595.595 0 0 1 .153.099c.376.12.731.254 1.071.44l.646.286c.156.082.331.208.483.317.096.069.182.131.248.171l.084.049c.146.084.298.172.426.269a10.711 10.711 0 0 1 6.545-2.188zm4.522 12.126a1.393 1.393 0 0 0 1.343-1.282v-.2a5.557 5.557 0 0 0-3.587-5.322 1.365 1.365 0 0 0-1.717.842 1.374 1.374 0 0 0 .85 1.733 2.82 2.82 0 0 1 1.819 2.644v.052c-.032.386.085.758.323 1.044s.595.453.969.488z"/></symbol><symbol id="icon-next" viewBox="0 0 34 32"><path fill="none" stroke="#fff" style="stroke:var(--color2, #fff)" stroke-linejoin="round" stroke-linecap="round" stroke-width="3.692" d="M2.462 15.385h29.539M19.077 2.462 32 15.385 19.077 28.308"/></symbol><symbol id="icon-location" viewBox="0 0 29 32"><path stroke-linejoin="round" stroke-linecap="round" stroke-width="2.667" d="M18.743 13.901c0-2.069-1.826-3.745-4.078-3.745-2.254 0-4.08 1.677-4.08 3.745 0 2.067 1.826 3.744 4.08 3.744 2.252 0 4.078-1.677 4.078-3.744z"/><path stroke-linejoin="round" stroke-linecap="round" stroke-width="2.667" d="M14.665 29.627c-1.955 0-12.236-7.641-12.236-15.632 0-6.256 5.477-11.328 12.236-11.328s12.237 5.072 12.237 11.328c0 7.991-10.282 15.632-12.237 15.632z"/></symbol><symbol id="icon-Location" viewBox="0 0 29 32"><path stroke-linejoin="round" stroke-linecap="round" stroke-width="2.667" d="M18.743 13.901c0-2.069-1.826-3.745-4.078-3.745-2.254 0-4.08 1.677-4.08 3.745 0 2.067 1.826 3.744 4.08 3.744 2.252 0 4.078-1.677 4.078-3.744z"/><path stroke-linejoin="round" stroke-linecap="round" stroke-width="2.667" d="M14.665 29.627c-1.955 0-12.236-7.641-12.236-15.632 0-6.256 5.477-11.328 12.236-11.328s12.237 5.072 12.237 11.328c0 7.991-10.282 15.632-12.237 15.632z"/></symbol></defs></svg>